<?xml version="1.0" encoding="UTF-8" standalone="no"?>
<!DOCTYPE svg PUBLIC "-//W3C//DTD SVG 1.1//EN" "http://www.w3.org/Graphics/SVG/1.1/DTD/svg11.dtd">
<svg width="100%" height="100%" viewBox="0 0 2000 2000" version="1.1" xmlns="http://www.w3.org/2000/svg" xmlns:xlink="http://www.w3.org/1999/xlink" xml:space="preserve" xmlns:serif="http://www.serif.com/" style="fill-rule:evenodd;clip-rule:evenodd;stroke-linejoin:round;stroke-miterlimit:2;">
    <g transform="matrix(13.105227,0,0,13.105227,-799.413988,-5737.613535)">
        <path d="M86.014,543C86.014,511.543 86.014,480.586 86.014,449.135C93.009,449.135 99.784,449.053 106.557,449.152C122.366,449.382 138.277,448.661 153.957,450.228C176.426,452.473 189.001,470.892 183.956,492.097C181.868,500.876 176.349,507.083 167.925,511.502C179.881,515.482 187.126,523.258 189.842,534.985C192.401,546.034 190.287,556.238 183.134,565.067C175.6,574.366 164.933,578.372 153.627,578.74C131.353,579.467 109.04,578.954 86.013,578.954C86.013,567.312 86.013,555.406 86.014,543M114.093,478.608L114.093,555.962C120.834,555.962 126.978,556.071 133.116,555.93C138.751,555.8 144.484,555.977 149.989,554.986C158.578,553.441 162.893,546.975 162.11,538.289C161.348,529.83 155.317,524.688 145.069,524.268C138.142,523.984 131.195,524.214 124.132,524.214L124.132,502.237C130.752,502.237 137.094,502.65 143.36,502.138C152.314,501.407 157.123,495.909 157.052,487.488C156.985,479.502 151.984,473.764 143.365,473.273C133.786,472.728 124.151,473.148 114.086,473.148C114.086,474.735 114.086,476.184 114.093,478.608Z" style="fill:rgb(46,21,55);fill-rule:nonzero;"/>
    </g>
</svg>
